<svg xmlns="http://www.w3.org/2000/svg" viewBox="0 0 32.17 24.42">
  <circle cx="16.085" cy="2.25" r="2.5" fill="none" stroke="#999999" stroke-width="0.35" stroke-dasharray="1,0.5"/>
  <polygon points="17.085,13.5 19.085,14.3 19.085,17.1 17.085,17.5" fill="#6a6a6a"/>
  <polygon points="15.085,13.5 13.085,14.3 13.085,17.1 15.085,17.5" fill="#6a6a6a"/>
  <path d="M 16.085,0 C 16.535,3.297 16.985,7.692 16.985,10.989 L 16.85,24.42 L 16.085,24.42 L 15.32,24.42 L 15.185,10.989 C 15.185,7.692 15.635,3.297 16.085,0 Z" fill="#4a4a4a"/>
  <polygon points="16.985,7.5 29.757,8.5 29.757,12.5 16.985,12.5" fill="#5e5e5e" opacity="0.75"/>
  <polygon points="15.185,7.5 2.413,8.5 2.413,12.5 15.185,12.5" fill="#5e5e5e" opacity="0.75"/>
  <polygon points="16.985,6 32.17,7.2 32.17,11.5 16.985,11" fill="#5e5e5e"/>
  <polygon points="15.185,6 0,7.2 0,11.5 15.185,11" fill="#5e5e5e"/>
</svg>
