<svg xmlns="http://www.w3.org/2000/svg" viewBox="0 0 104 63.9">
  <circle cx="72" cy="18.25" r="7.5" fill="none" stroke="#999999" stroke-width="0.624" stroke-dasharray="3.12,1.56"/>
  <ellipse cx="72" cy="30.032" rx="2.4" ry="8.925" fill="#3a3a3a"/>
  <circle cx="32" cy="18.25" r="7.5" fill="none" stroke="#999999" stroke-width="0.624" stroke-dasharray="3.12,1.56"/>
  <ellipse cx="32" cy="30.032" rx="2.4" ry="8.925" fill="#3a3a3a"/>
  <polygon points="53,53 71,54.8 71,61.1 53,62" fill="#6a6a6a"/>
  <polygon points="51,53 33,54.8 33,61.1 51,62" fill="#6a6a6a"/>
  <path d="M 52,0 C 54,8.627 56,20.128 56,28.755 L 55.4,63.9 L 52,63.9 L 48.6,63.9 L 48,28.755 C 48,20.128 50,8.627 52,0 Z" fill="#4a4a4a"/>
  <polygon points="56,22 104,27.25 104,38.8 56,43" fill="#5e5e5e"/>
  <polygon points="48,22 0,27.25 0,38.8 48,43" fill="#5e5e5e"/>
</svg>
